<svg version="1.1" id="Layer_1" xmlns="http://www.w3.org/2000/svg" xmlns:xlink="http://www.w3.org/1999/xlink" x="0px" y="0px"
	 width="100%" viewBox="0 0 310 269" enable-background="new 0 0 310 269" xml:space="preserve">
<path fill="#FEFFFE" opacity="1.000000" stroke="none" 
	d="
M209.000000,270.000000 
	C139.333344,270.000000 70.166687,270.000000 1.000019,270.000000 
	C1.000012,180.333359 1.000012,90.666702 1.000006,1.000043 
	C104.333305,1.000028 207.666611,1.000028 310.999939,1.000014 
	C310.999939,90.666626 310.999939,180.333252 310.999969,269.999939 
	C277.166656,270.000000 243.333328,270.000000 209.000000,270.000000 
M188.499985,222.079605 
	C201.828125,222.079636 215.156281,222.081039 228.484421,222.079269 
	C238.644974,222.077927 242.880051,217.796127 242.900436,207.438446 
	C242.923050,195.942993 242.905624,184.447449 242.905609,172.951950 
	C242.905548,136.133011 242.912704,99.314079 242.900665,62.495140 
	C242.897400,52.541702 238.779099,48.156948 228.920685,47.549156 
	C227.592438,47.467270 226.255997,47.509277 224.923340,47.509232 
	C178.608124,47.507683 132.292892,47.506702 85.977669,47.513157 
	C84.313683,47.513390 82.639008,47.482765 80.987503,47.648136 
	C71.904167,48.557686 68.138390,52.770958 68.136589,62.039593 
	C68.127144,110.687241 68.124451,159.334885 68.139076,207.982529 
	C68.141983,217.650162 72.537758,222.076202 82.041206,222.077545 
	C117.194130,222.082489 152.347046,222.079575 188.499985,222.079605 
z"/>
<path fill="#0D0C0D" opacity="1.000000" stroke="none" 
	d="
M187.999969,222.079605 
	C152.347046,222.079575 117.194130,222.082489 82.041206,222.077545 
	C72.537758,222.076202 68.141983,217.650162 68.139076,207.982529 
	C68.124451,159.334885 68.127144,110.687241 68.136589,62.039593 
	C68.138390,52.770958 71.904167,48.557686 80.987503,47.648136 
	C82.639008,47.482765 84.313683,47.513390 85.977669,47.513157 
	C132.292892,47.506702 178.608124,47.507683 224.923340,47.509232 
	C226.255997,47.509277 227.592438,47.467270 228.920685,47.549156 
	C238.779099,48.156948 242.897400,52.541702 242.900665,62.495140 
	C242.912704,99.314079 242.905548,136.133011 242.905609,172.951950 
	C242.905624,184.447449 242.923050,195.942993 242.900436,207.438446 
	C242.880051,217.796127 238.644974,222.077927 228.484421,222.079269 
	C215.156281,222.081039 201.828125,222.079636 187.999969,222.079605 
M170.545990,136.761612 
	C182.638229,132.097031 189.558395,135.946838 191.414795,148.509827 
	C191.848984,151.447983 191.938660,154.456970 191.949707,157.434250 
	C191.995438,169.755356 191.897369,182.077347 192.027740,194.397156 
	C192.039551,195.512878 193.279404,197.558517 193.995224,197.579315 
	C201.912735,197.809219 209.839386,197.723938 217.627960,197.723938 
	C217.627960,177.311539 217.765976,157.688828 217.500885,138.071548 
	C217.453094,134.533798 215.935822,130.954514 214.766068,127.506660 
	C212.615433,121.167610 208.322922,116.737831 202.037445,114.335571 
	C191.638199,110.361031 174.091705,109.695824 164.775497,121.372604 
	C164.354523,121.900269 163.587982,122.152222 162.473450,122.852234 
	C162.314560,119.597389 162.187897,117.002876 162.047302,114.122917 
	C153.671097,114.122917 145.494812,114.122917 137.331726,114.122917 
	C137.331726,142.254059 137.331726,169.951797 137.331726,197.696777 
	C146.134415,197.696777 154.559540,197.696777 163.536301,197.696777 
	C163.536301,195.844482 163.536270,194.221573 163.536301,192.598663 
	C163.536560,179.444275 163.399704,166.287796 163.598602,153.136414 
	C163.689377,147.134674 164.168533,141.035294 170.545990,136.761612 
M121.209236,151.500092 
	C121.209236,139.084183 121.209236,126.668282 121.209236,114.128738 
	C112.076836,114.128738 103.560516,114.128738 95.081299,114.128738 
	C95.081299,142.087173 95.081299,169.613647 95.081299,197.450684 
	C103.779175,197.450684 112.166023,197.450684 121.209244,197.450684 
	C121.209244,182.317139 121.209244,167.408630 121.209236,151.500092 
M94.445045,80.272980 
	C94.059006,81.368179 93.582039,82.440689 93.302017,83.562355 
	C91.754318,89.761940 93.221649,95.115463 98.141594,99.275475 
	C103.092712,103.461845 109.455894,104.174553 114.888756,101.123764 
	C120.612511,97.909607 123.449593,92.951942 123.041702,86.312279 
	C122.693275,80.640388 118.147324,74.613129 113.137894,73.075424 
	C106.067284,70.905014 100.019737,73.063705 94.445045,80.272980 
z"/>
<path fill="#FBFCFB" opacity="1.000000" stroke="none" 
	d="
M170.193832,136.925934 
	C164.168533,141.035294 163.689377,147.134674 163.598602,153.136414 
	C163.399704,166.287796 163.536560,179.444275 163.536301,192.598663 
	C163.536270,194.221573 163.536301,195.844482 163.536301,197.696777 
	C154.559540,197.696777 146.134415,197.696777 137.331726,197.696777 
	C137.331726,169.951797 137.331726,142.254059 137.331726,114.122917 
	C145.494812,114.122917 153.671097,114.122917 162.047302,114.122917 
	C162.187897,117.002876 162.314560,119.597389 162.473450,122.852234 
	C163.587982,122.152222 164.354523,121.900269 164.775497,121.372604 
	C174.091705,109.695824 191.638199,110.361031 202.037445,114.335571 
	C208.322922,116.737831 212.615433,121.167610 214.766068,127.506660 
	C215.935822,130.954514 217.453094,134.533798 217.500885,138.071548 
	C217.765976,157.688828 217.627960,177.311539 217.627960,197.723938 
	C209.839386,197.723938 201.912735,197.809219 193.995224,197.579315 
	C193.279404,197.558517 192.039551,195.512878 192.027740,194.397156 
	C191.897369,182.077347 191.995438,169.755356 191.949707,157.434250 
	C191.938660,154.456970 191.848984,151.447983 191.414795,148.509827 
	C189.558395,135.946838 182.638229,132.097031 170.193832,136.925934 
z"/>
<path fill="#FDFEFE" opacity="1.000000" stroke="none" 
	d="
M121.209244,152.000092 
	C121.209244,167.408630 121.209244,182.317139 121.209244,197.450684 
	C112.166023,197.450684 103.779175,197.450684 95.081299,197.450684 
	C95.081299,169.613647 95.081299,142.087173 95.081299,114.128738 
	C103.560516,114.128738 112.076836,114.128738 121.209236,114.128738 
	C121.209236,126.668282 121.209236,139.084183 121.209244,152.000092 
z"/>
<path fill="#F9FAFA" opacity="1.000000" stroke="none" 
	d="
M94.641800,79.940201 
	C100.019737,73.063705 106.067284,70.905014 113.137894,73.075424 
	C118.147324,74.613129 122.693275,80.640388 123.041702,86.312279 
	C123.449593,92.951942 120.612511,97.909607 114.888756,101.123764 
	C109.455894,104.174553 103.092712,103.461845 98.141594,99.275475 
	C93.221649,95.115463 91.754318,89.761940 93.302017,83.562355 
	C93.582039,82.440689 94.059006,81.368179 94.641800,79.940201 
z"/>
</svg>