<svg version="1.1" id="Layer_1" xmlns="http://www.w3.org/2000/svg" xmlns:xlink="http://www.w3.org/1999/xlink" x="0px" y="0px"
	 width="100%" viewBox="0 0 336 304" enable-background="new 0 0 336 304" xml:space="preserve">
<path fill="#000000" opacity="1.000000" stroke="none" 
	d="
M200.817551,136.799973 
	C193.637924,145.363663 186.768661,153.727203 179.707779,161.925690 
	C177.640015,164.326614 177.830856,165.869751 179.855499,168.267502 
	C198.335587,190.153107 216.671326,212.160599 235.047241,234.134140 
	C235.794922,235.028214 236.574173,235.902023 237.251541,236.847717 
	C240.726746,241.699768 240.346985,247.057236 236.332962,250.257477 
	C232.128708,253.609329 226.255722,253.084244 222.513550,248.745239 
	C215.334671,240.421417 208.288361,231.983154 201.199753,223.581650 
	C190.031815,210.345261 178.818283,197.146530 167.754852,183.823257 
	C165.230530,180.783310 163.533112,181.033325 161.126297,183.932693 
	C143.474197,205.197388 125.713570,226.371994 108.002678,247.587936 
	C103.886047,252.519272 99.536629,253.894409 94.914925,251.625717 
	C88.907570,248.676849 87.544022,242.353180 92.073372,236.559189 
	C97.301102,229.871826 102.871712,223.451462 108.325668,216.942154 
	C122.014206,200.604980 135.655838,184.227493 149.485443,168.010437 
	C151.746628,165.358887 150.876770,163.876511 149.056396,161.705841 
	C130.438126,139.504593 111.904152,117.232658 93.336441,94.988976 
	C90.479538,91.566490 87.886635,88.060005 90.096794,83.291298 
	C93.373291,76.221855 101.733856,75.523743 107.280937,81.978600 
	C114.987328,90.946114 122.537918,100.047539 130.151794,109.094505 
	C140.768173,121.709137 151.385590,134.322937 161.985718,146.951218 
	C162.624878,147.712662 163.115753,148.598602 164.119736,150.083435 
	C168.268417,145.286911 171.842087,141.238068 175.325790,137.113205 
	C190.689362,118.922119 206.032959,100.714111 221.365799,82.497086 
	C223.104492,80.431320 224.884232,78.392067 227.633621,77.788925 
	C231.917358,76.849174 235.696381,77.931717 238.208191,81.626640 
	C240.768692,85.393173 240.197235,89.331512 237.456009,92.754807 
	C232.044601,99.512672 226.463730,106.135376 220.922134,112.788315 
	C214.316574,120.718559 207.678696,128.621857 200.817551,136.799973 
z"/>
</svg>